<svg width="20" height="21" viewBox="0 0 20 21" fill="none" xmlns="http://www.w3.org/2000/svg">
<circle cx="10" cy="11" r="9" fill="#1464F4" stroke="#F0F3F3" stroke-width="2"/>
<path d="M9.99998 14.3333H6.66665V8.49999H9.99998V14.3333ZM10.2791 7.66666H9.58331V6.83333H7.08331V7.66666H6.38748C6.08331 7.66666 5.83331 7.91666 5.83331 8.22083V14.6125C5.83331 14.9167 6.08331 15.1667 6.38748 15.1667H10.2791C10.5875 15.1667 10.8333 14.9208 10.8333 14.6125V8.22083C10.8333 7.91666 10.5833 7.66666 10.2791 7.66666ZM9.58331 12.6667H7.08331V13.9167H9.58331V12.6667ZM9.58331 8.91666H7.08331V10.1667H9.58331V8.91666ZM9.58331 10.7917H7.08331V12.0417H9.58331V10.7917ZM14.5833 10.1667H13.3333V7.24999L11.25 11.4167H12.5V14.75" fill="white"/>
</svg>
