<svg width="78" height="19" viewBox="0 0 78 19" fill="none" xmlns="http://www.w3.org/2000/svg">
<path d="M7.99984 2.83334C10.2065 2.83334 11.9998 4.60667 11.9998 6.8C11.9998 9.77334 7.99984 14.1667 7.99984 14.1667C7.99984 14.1667 3.99984 9.77334 3.99984 6.8C3.99984 4.60667 5.79317 2.83334 7.99984 2.83334ZM7.99984 5.5C7.64621 5.5 7.30708 5.64048 7.05703 5.89053C6.80698 6.14058 6.6665 6.47971 6.6665 6.83334C6.6665 7.18696 6.80698 7.5261 7.05703 7.77614C7.30708 8.02619 7.64621 8.16667 7.99984 8.16667C8.35346 8.16667 8.6926 8.02619 8.94265 7.77614C9.19269 7.5261 9.33317 7.18696 9.33317 6.83334C9.33317 6.47971 9.19269 6.14058 8.94265 5.89053C8.6926 5.64048 8.35346 5.5 7.99984 5.5V5.5ZM13.3332 14.1667C13.3332 15.64 10.9465 16.8333 7.99984 16.8333C5.05317 16.8333 2.6665 15.64 2.6665 14.1667C2.6665 13.3067 3.47984 12.54 4.73984 12.0533L5.1665 12.66C4.4465 12.96 3.99984 13.3733 3.99984 13.8333C3.99984 14.7533 5.79317 15.5 7.99984 15.5C10.2065 15.5 11.9998 14.7533 11.9998 13.8333C11.9998 13.3733 11.5532 12.96 10.8332 12.66L11.2598 12.0533C12.5198 12.54 13.3332 13.3067 13.3332 14.1667Z" fill="#1464F4"/>
<path d="M24.8 14.608C23.936 14.608 23.2 14.432 22.592 14.08C21.984 13.728 21.516 13.228 21.188 12.58C20.868 11.924 20.708 11.152 20.708 10.264C20.708 9.376 20.868 8.608 21.188 7.96C21.516 7.312 21.984 6.812 22.592 6.46C23.2 6.108 23.936 5.932 24.8 5.932C25.4 5.932 25.936 6.02 26.408 6.196C26.88 6.372 27.292 6.628 27.644 6.964L27.212 7.96C26.828 7.632 26.452 7.396 26.084 7.252C25.724 7.108 25.304 7.036 24.824 7.036C23.912 7.036 23.216 7.316 22.736 7.876C22.256 8.436 22.016 9.232 22.016 10.264C22.016 11.296 22.256 12.096 22.736 12.664C23.216 13.224 23.912 13.504 24.824 13.504C25.304 13.504 25.724 13.432 26.084 13.288C26.452 13.144 26.828 12.904 27.212 12.568L27.644 13.564C27.292 13.9 26.88 14.16 26.408 14.344C25.936 14.52 25.4 14.608 24.8 14.608ZM29.1028 14.5V5.668H30.3148V9.736H30.1468C30.3228 9.28 30.6068 8.936 30.9988 8.704C31.3908 8.464 31.8428 8.344 32.3548 8.344C33.0748 8.344 33.6108 8.544 33.9628 8.944C34.3148 9.336 34.4908 9.932 34.4908 10.732V14.5H33.2788V10.804C33.2788 10.284 33.1748 9.908 32.9668 9.676C32.7668 9.436 32.4468 9.316 32.0068 9.316C31.4948 9.316 31.0828 9.476 30.7708 9.796C30.4668 10.108 30.3148 10.524 30.3148 11.044V14.5H29.1028ZM36.2161 14.5V8.452H37.4281V14.5H36.2161ZM36.4441 7.864V7.624C36.4441 7.448 36.4801 7.304 36.5521 7.192C36.6241 7.072 36.7041 6.972 36.7921 6.892C36.8881 6.804 36.9721 6.72 37.0441 6.64C37.1161 6.552 37.1521 6.452 37.1521 6.34C37.1521 6.236 37.1081 6.156 37.0201 6.1C36.9401 6.044 36.8121 6.016 36.6361 6.016C36.5081 6.016 36.3841 6.032 36.2641 6.064C36.1521 6.088 36.0281 6.136 35.8921 6.208L35.7001 5.632C35.8521 5.536 36.0281 5.468 36.2281 5.428C36.4361 5.38 36.6561 5.356 36.8881 5.356C37.2721 5.356 37.5721 5.428 37.7881 5.572C38.0041 5.716 38.1121 5.924 38.1121 6.196C38.1121 6.396 38.0641 6.56 37.9681 6.688C37.8801 6.808 37.7761 6.912 37.6561 7C37.5441 7.088 37.4401 7.184 37.3441 7.288C37.2561 7.384 37.2121 7.516 37.2121 7.684V7.864H36.4441ZM44.7076 14.608C44.1796 14.608 43.7156 14.488 43.3156 14.248C42.9156 14 42.6036 13.648 42.3796 13.192C42.1636 12.728 42.0556 12.18 42.0556 11.548C42.0556 10.908 42.1636 10.36 42.3796 9.904C42.6036 9.448 42.9156 9.096 43.3156 8.848C43.7156 8.6 44.1796 8.476 44.7076 8.476C45.2276 8.476 45.6836 8.608 46.0756 8.872C46.4676 9.128 46.7276 9.472 46.8556 9.904H46.7236V7.588H44.4076V6.712H46.7236V5.668H47.9356V6.712H49.0516V7.588H47.9356V14.5H46.7356V13.144H46.8676C46.7316 13.592 46.4676 13.948 46.0756 14.212C45.6916 14.476 45.2356 14.608 44.7076 14.608ZM45.0196 13.66C45.5316 13.66 45.9476 13.48 46.2676 13.12C46.5876 12.76 46.7476 12.236 46.7476 11.548C46.7476 10.852 46.5876 10.328 46.2676 9.976C45.9476 9.616 45.5316 9.436 45.0196 9.436C44.4916 9.436 44.0676 9.616 43.7476 9.976C43.4356 10.328 43.2796 10.852 43.2796 11.548C43.2796 12.236 43.4356 12.76 43.7476 13.12C44.0676 13.48 44.4916 13.66 45.0196 13.66ZM51.8641 14.608C51.1361 14.608 50.5881 14.412 50.2201 14.02C49.8601 13.62 49.6801 13.008 49.6801 12.184V8.452H50.8921V12.16C50.8921 12.664 50.9961 13.036 51.2041 13.276C51.4121 13.516 51.7281 13.636 52.1521 13.636C52.6321 13.636 53.0201 13.476 53.3161 13.156C53.6121 12.836 53.7601 12.412 53.7601 11.884V8.452H54.9721V14.5H53.7961V13.204H53.9521C53.7841 13.652 53.5161 14 53.1481 14.248C52.7801 14.488 52.3521 14.608 51.8641 14.608ZM54.6961 9.136L54.0241 8.704V8.452C54.3361 8.444 54.5841 8.4 54.7681 8.32C54.9521 8.232 55.0841 8.092 55.1641 7.9C55.2441 7.708 55.2841 7.452 55.2841 7.132V6.916H56.3401V7.3C56.3401 7.652 56.2721 7.96 56.1361 8.224C56.0081 8.488 55.8201 8.7 55.5721 8.86C55.3321 9.02 55.0401 9.112 54.6961 9.136ZM59.3394 14.608C58.7394 14.608 58.2194 14.484 57.7794 14.236C57.3394 13.98 56.9994 13.62 56.7594 13.156C56.5194 12.684 56.3994 12.124 56.3994 11.476C56.3994 10.828 56.5194 10.272 56.7594 9.808C56.9994 9.336 57.3394 8.976 57.7794 8.728C58.2194 8.472 58.7394 8.344 59.3394 8.344C59.9394 8.344 60.4594 8.472 60.8994 8.728C61.3474 8.976 61.6914 9.336 61.9314 9.808C62.1794 10.272 62.3034 10.828 62.3034 11.476C62.3034 12.124 62.1794 12.684 61.9314 13.156C61.6914 13.62 61.3474 13.98 60.8994 14.236C60.4594 14.484 59.9394 14.608 59.3394 14.608ZM59.3394 13.66C59.8674 13.66 60.2874 13.476 60.5994 13.108C60.9114 12.74 61.0674 12.196 61.0674 11.476C61.0674 10.756 60.9114 10.216 60.5994 9.856C60.2874 9.488 59.8674 9.304 59.3394 9.304C58.8194 9.304 58.4034 9.488 58.0914 9.856C57.7794 10.216 57.6234 10.756 57.6234 11.476C57.6234 12.196 57.7754 12.74 58.0794 13.108C58.3914 13.476 58.8114 13.66 59.3394 13.66ZM60.6474 9.136L59.9754 8.704V8.452C60.2874 8.444 60.5354 8.4 60.7194 8.32C60.9034 8.232 61.0354 8.092 61.1154 7.9C61.1954 7.708 61.2354 7.452 61.2354 7.132V6.916H62.2914V7.3C62.2914 7.652 62.2234 7.96 62.0874 8.224C61.9594 8.488 61.7714 8.7 61.5234 8.86C61.2834 9.02 60.9914 9.112 60.6474 9.136ZM58.8354 7.864L57.2034 5.44H58.4394L59.6754 7.864H58.8354ZM63.72 14.5V9.904C63.72 9.672 63.708 9.436 63.684 9.196C63.668 8.948 63.648 8.7 63.624 8.452H64.8L64.908 9.724H64.764C64.948 9.276 65.232 8.936 65.616 8.704C66 8.464 66.444 8.344 66.948 8.344C67.66 8.344 68.196 8.54 68.556 8.932C68.924 9.324 69.108 9.932 69.108 10.756V14.5H67.896V10.828C67.896 10.292 67.788 9.908 67.572 9.676C67.364 9.436 67.044 9.316 66.612 9.316C66.1 9.316 65.692 9.476 65.388 9.796C65.084 10.108 64.932 10.532 64.932 11.068V14.5H63.72ZM73.5573 17.188C73.0133 17.188 72.5173 17.124 72.0693 16.996C71.6293 16.868 71.2333 16.676 70.8813 16.42L71.1813 15.532C71.4293 15.7 71.6733 15.832 71.9133 15.928C72.1533 16.032 72.4053 16.108 72.6693 16.156C72.9333 16.204 73.2053 16.228 73.4853 16.228C74.0613 16.228 74.4933 16.08 74.7813 15.784C75.0773 15.496 75.2253 15.076 75.2253 14.524V12.904H75.3453C75.2173 13.352 74.9533 13.708 74.5533 13.972C74.1613 14.228 73.7053 14.356 73.1853 14.356C72.6333 14.356 72.1533 14.236 71.7453 13.996C71.3453 13.748 71.0333 13.4 70.8093 12.952C70.5933 12.496 70.4853 11.96 70.4853 11.344C70.4853 10.728 70.5933 10.196 70.8093 9.748C71.0333 9.3 71.3453 8.956 71.7453 8.716C72.1533 8.468 72.6333 8.344 73.1853 8.344C73.7133 8.344 74.1693 8.476 74.5533 8.74C74.9453 8.996 75.2053 9.348 75.3333 9.796L75.2253 9.7L75.3333 8.452H76.5093C76.4773 8.7 76.4533 8.948 76.4373 9.196C76.4213 9.436 76.4133 9.672 76.4133 9.904V14.38C76.4133 15.292 76.1693 15.988 75.6813 16.468C75.2013 16.948 74.4933 17.188 73.5573 17.188ZM73.4733 13.408C74.0013 13.408 74.4213 13.228 74.7333 12.868C75.0533 12.508 75.2133 12 75.2133 11.344C75.2133 10.688 75.0533 10.184 74.7333 9.832C74.4213 9.48 74.0013 9.304 73.4733 9.304C72.9293 9.304 72.4973 9.48 72.1773 9.832C71.8653 10.184 71.7093 10.688 71.7093 11.344C71.7093 12 71.8653 12.508 72.1773 12.868C72.4973 13.228 72.9293 13.408 73.4733 13.408Z" fill="#1464F4"/>
</svg>
