<svg width="20" height="21" viewBox="0 0 20 21" fill="none" xmlns="http://www.w3.org/2000/svg">
<circle cx="10" cy="11" r="9" fill="#1464F4" stroke="#F0F3F3" stroke-width="2"/>
<path d="M14.9404 6.01379C14.7608 5.93358 14.4913 6.22769 14.4015 6.26779C14.3116 6.29453 13.978 6.348 13.67 6.65548C13.3236 7.01642 11.1164 10.4655 10.5903 11.1072C10.308 11.4547 10.077 11.7622 10 11.7622C9.93584 11.7622 9.69203 11.4547 9.40972 11.1072C8.88359 10.4655 6.67644 7.01642 6.32997 6.65548C6.03483 6.348 5.68835 6.29453 5.59853 6.26779C5.5087 6.24106 5.23923 5.93358 5.05957 6.01379C4.91842 6.08063 5.0724 6.38811 5.0724 6.38811C5.13656 6.57527 5.9065 8.46021 6.66361 10.1981C7.35655 11.7756 8.011 13.1258 8.26764 13.6605C9.28139 15.7861 9.85885 16 10 16C10.1412 16 10.7058 15.7727 11.7324 13.6605C11.989 13.1258 12.6434 11.7756 13.3364 10.1981C14.1063 8.46021 14.8763 6.57527 14.9276 6.38811C14.9276 6.38811 15.0816 6.08063 14.9404 6.01379ZM14.6838 6.45495C14.3501 6.856 11.9633 12.0162 11.4244 12.9654C10.8726 13.9279 10.1925 15.1043 10.0128 15.1043C9.82035 15.0909 9.14023 13.9279 8.60128 12.9654C8.06232 12.0162 5.67552 6.84263 5.34188 6.45495C5.25206 6.348 5.03391 6.13411 5.1109 6.094C5.22639 6.02716 5.49587 6.348 5.64986 6.38811C5.81668 6.42821 5.95783 6.44158 6.22731 6.70895C6.52245 6.98969 7.04858 7.89874 7.98533 9.3559C8.57562 10.2649 9.06324 10.9735 9.33272 11.3344C9.66636 11.7889 9.91017 12.0028 10.0128 12.0028C10.1155 12.0028 10.3465 11.7889 10.6929 11.3344C10.9624 10.9735 11.45 10.2783 12.0403 9.3559C12.9771 7.89874 13.5032 7.00305 13.7984 6.70895C14.0678 6.44158 14.2218 6.42821 14.3758 6.38811C14.5426 6.348 14.8121 6.02716 14.9148 6.094C14.9918 6.13411 14.7736 6.348 14.6838 6.45495Z" fill="white"/>
<path d="M14.1448 6.73567C14.0293 6.94956 13.516 7.97893 12.8744 9.18209C12.1558 10.5323 11.3217 12.0563 11.1421 12.3638C10.8212 12.9252 10.1925 13.8744 9.99998 13.8744C9.8075 13.861 9.16588 12.9119 8.85791 12.3638C8.69109 12.0697 7.84416 10.5323 7.12555 9.18209C6.48394 7.97893 5.98348 6.94956 5.85516 6.73567C5.72683 6.49504 5.77817 6.44157 6.02198 6.73567C6.39412 7.17683 7.29237 8.79441 7.29237 8.79441C7.29237 8.79441 8.83225 11.4815 9.07606 11.8424C9.30704 12.1766 9.8075 12.8584 9.98715 12.8718C10.1668 12.8584 10.6673 12.1766 10.8982 11.8424C11.1421 11.4815 12.6819 8.79441 12.6819 8.79441C12.6819 8.79441 13.5802 7.17683 13.9523 6.73567C14.2218 6.44157 14.2603 6.49504 14.1448 6.73567Z" fill="white"/>
</svg>
